# xmcd CD database file
#
# Track frame offsets:
#	150
#	26967
#	51671
#	74167
#	100441
#	128994
#	158850
#	181995
#	212712
#	232981
#	259419
#	280538
#	297583
#	312732
#	334669
#
# Disc length: 4717 seconds
#
# Revision: 3
# Processed by: cddbd v1.5.2PL0 Copyright (c) Steve Scherf et al.
# Submitted via: CDex 1.50
#
DISCID=fa126b0f
DTITLE=Various Artist - Simply Latin Party 4
DYEAR=2009
DGENRE=Salsa
TTITLE0=Irakere - Homenaje A Beny
TTITLE1=Juan Formell Y Los Van Van - La Habana No Aguanta Mas
TTITLE2=Israel Lopez (Cachao) Y Su Tipica Gigante - Ni Por Manteca Ni Mantequilla
TTITLE3=Paulito F.G. - Son De Un Amigo
TTITLE4=Adalberto Alvarez Y Su Son - El Regreso De Maria
TTITLE5=Manolito Simonet Y Su Trabuco - Dueno De Ti
TTITLE6=Orquesta Reve - Changui Campanero
TTITLE7=Orquesta Los Van Van - Por Encima Del Nival (Sandunguera)
TTITLE8=Orquesta Original De Manzanillo - En Cuba El Son Se Ha Muer To
TTITLE9=Grupo Manguare - Testamento De Un Sonero
TTITLE10=Issac Delgado - El Ano Que Viene
TTITLE11=Conjunto Rumbavana - Realidad Y Solucion
TTITLE12=Grupo Sierra Maestra - Bururu Barara
TTITLE13=Omara Portuondo Y Adalberto Alvarez Y Su Son - Agua Que Cae Del Cielo
TTITLE14=Compay Segundo Y Su Grupo - Chan Chan
EXTD=YEAR: 2009
EXTT0=
EXTT1=
EXTT2=
EXTT3=
EXTT4=
EXTT5=
EXTT6=
EXTT7=
EXTT8=
EXTT9=
EXTT10=
EXTT11=
EXTT12=
EXTT13=
EXTT14=
PLAYORDER=
